<?xml version="1.0" encoding="UTF-8"?>
<svg width="24" height="24" viewBox="0 0 24 24" fill="none" xmlns="http://www.w3.org/2000/svg">
    <path d="M21.53 15.93C20.0728 16.5557 18.5007 16.8727 16.9133 16.8651C12.3866 16.8651 8.71997 13.1985 8.71997 8.67179C8.71997 7.08444 9.11997 5.57178 9.81997 4.25178C9.99533 3.91753 9.90775 3.50591 9.61241 3.27627C9.31706 3.04662 8.89193 3.04141 8.58997 3.26444C5.21997 5.76444 3.71997 10.0111 4.71997 14.2778C5.71997 18.5445 9.31997 21.7245 13.72 22.1645C18.12 22.6045 22.2533 20.1378 23.72 16.0511C23.8552 15.6829 23.6919 15.2733 23.3251 15.0711C22.9583 14.8689 22.5015 14.9252 22.1947 15.2104C21.9996 15.4645 21.7791 15.7036 21.53 15.93Z" fill="currentColor"/>
</svg>
